<svg id="Layer_1" xmlns="http://www.w3.org/2000/svg" viewBox="0 0 542.3 99.9"><style>.st0{fill:none}.st1{display:none;fill:#566372}.st2{font-family:&amp;apos;OpenSans-Bold&amp;apos;}.st3{font-size:24px}.st4{letter-spacing:4}.st5{fill:#566372}.st6{fill:#4487cb}.st7{fill:#566371}.st8{fill:#888}</style><path class="st0" d="M56.1 67.7h543.4v30.1H56.1z"/><text transform="translate(56.114 85.918)" class="st1 st2 st3 st4">BETTER CREDIT COMPARISON</text><path class="st5" d="M29 46.8c.6 0 .9.7.9 2.2 0 .9-.2 1.6-.5 1.9-.3.3-.6.5-.8.5H11.3c-.5 0-.8-.6-.8-1.9 0-1.1.3-1.9.9-2.5.2-.2.5-.3 1-.3h.4c.5 0 1 0 1.5-.1.6 0 1.1-.1 1.5-.2.6-.2.9-.5.9-1.1V7.5H5.8l-1.4 4.8c-.2.6-.7.8-1.6.8-1.1 0-1.9-.4-2.5-1-.2-.1-.3-.4-.3-.6v-.1l1.2-8.9H39l1.2 8.9v.1c0 .8-.6 1.3-1.8 1.6-.3.1-.5.1-.8.1h-.2c-.8 0-1.4-.3-1.6-.8l-1.4-4.8H23.5v39.3H29zm51 5.3c-4.4 0-6.7-3-6.7-9V23.9h-6.2c0-2.4.1-3.8.4-4.3.3-.5.6-.7 1-.7h.3c2.7 0 4.3-.2 4.8-.7.2-.2.3-.4.4-.6l1.4-7.2c.3-1.2 1.7-1.8 4.2-1.8V19h8.8c.5 0 .8.6.8 1.9 0 1.3-.3 2.2-.8 2.8-.2.2-.3.3-.6.3h-8.2v19.2c0 2.4.7 3.6 2.1 3.6 1.6 0 2.8-.1 3.5-.4.7-.2 1.2-.4 1.4-.4.2 0 .5.1.7.2.2.2.5.4.6.6.4.6.6 1.1.6 1.8 0 .6-.2 1.1-.6 1.3-2.7 1.4-5.4 2.2-7.9 2.2zm22.8-29.3c.3.6.4 1.2.4 1.9s-.1 1.3-.3 1.9c-.3.5-.6 1-1 1.4-.8.8-1.9 1.2-3.2 1.3-2 0-3.4-.9-4.1-2.7-.2-.5-.3-1.2-.3-2s.2-1.5.7-2.2c.5-.7 1.1-1.3 1.8-1.8s1.6-.9 2.5-1.2c.9-.3 1.9-.5 2.9-.7 1.7-.3 3.6-.5 5.6-.5 2 0 3.8.3 5.2 1s2.7 1.5 3.5 2.6c1.5 1.9 2.2 4.7 2.2 8.2v16.8h5.5c.6 0 .9.6.9 1.9 0 .6-.1 1.1-.3 1.7s-.6.9-1 1c-1.2.3-2.9.5-5.2.5-2.3 0-3.5 0-3.8-.1-.3-.1-.5-.2-.7-.4-.4-.4-.8-1.1-1.2-2.2-2.6 1.9-5.8 2.9-9.6 2.9-3.3 0-6-.9-7.9-2.7-1.8-1.6-2.7-3.8-2.7-6.5v-.1c0-3.3 1.2-5.9 3.7-7.8 2.1-1.6 4.8-2.5 8-2.5h8c0-3.6-.3-5.9-.9-7-.6-1.1-1.3-1.8-2.1-2.2s-1.9-.6-3.3-.6h-3.3zm1.7 24.3c2.7 0 5.4-1.1 8-3.2v-6.3h-7.1c-1.7 0-3 .3-3.8.9-1.5 1-2.2 2.2-2.2 3.6 0 2.6 1.1 4.2 3.2 4.8.6.1 1.2.2 1.9.2zm24.1 4.3c-.6 0-.8-.7-.8-2 0-1 .2-1.7.5-2.1.3-.3.6-.5.8-.5h.3c2.5 0 3.9-.2 4.3-.7.1-.2.2-.4.2-.6V5.7h-5.7c-.6 0-1-.6-1.2-1.7 0-.3-.1-.6-.1-.9 0-1 .3-1.6.9-1.8.6-.2 1.4-.4 2.3-.6 1-.2 2-.3 3-.4 2-.2 3.9-.3 5.7-.3.9 0 1.4.9 1.4 2.8v44.1h5.5c.6 0 .8.7.8 2 0 1-.2 1.7-.5 2.1s-.6.5-.8.5h-16.6zm22.2 0c-.6 0-.8-.7-.8-2 0-1 .2-1.7.5-2.1s.6-.5.8-.5h.3c2.5 0 3.9-.2 4.3-.7.1-.2.2-.4.2-.6V5.7h-5.7c-.6 0-1-.6-1.2-1.7 0-.3-.1-.6-.1-.9 0-1 .3-1.6.9-1.8.6-.2 1.4-.4 2.3-.6 1-.2 2-.3 3-.4 2-.2 3.9-.3 5.7-.3.9 0 1.4.9 1.4 2.8v44.1h5.5c.6 0 .8.7.8 2 0 1-.2 1.7-.5 2.1-.3.3-.6.5-.8.5h-16.6z"/><path class="st5" d="M202.3 18.9c.5 0 .8.6.8 1.9 0 1.1-.3 1.9-.8 2.5-.2.2-.4.3-.8.3s-.7 0-1 .1c-.3 0-.6.1-.8.3-.3.2-.6.6-.8 1.1l-13.7 35c-.7 1.8-1.8 3.2-3.4 4.3-1.6 1-3.5 1.6-5.7 1.6-3 0-5.2-1-6.4-3-.4-.7-.6-1.5-.6-2.4v-.1c0-.8.1-1.5.4-2 .2-.6.5-1 .9-1.4.9-.9 1.8-1.3 2.8-1.3h.1c1 0 1.8.2 2.4.5.5.3 1 .7 1.3 1.2.6.9.9 2.1.9 3.6.7 0 1.3-.4 1.8-1.2.5-.8 1-1.6 1.3-2.5.4-.9.7-1.7 1-2.5.3-.8.5-1.5.7-2.1.2-.6.3-1 .4-1.2l-10.8-27.7h-3.6c-.6 0-.8-.6-.8-1.9 0-1.1.2-1.8.5-2.1.3-.3.6-.5.8-.5h14.1c.5 0 .8.6.8 1.9 0 1.1-.2 1.8-.5 2.2s-.6.5-.8.5c-1.9 0-2.9.5-2.9 1.4l6.6 19.3 7.7-20.7h-4.3c-.6 0-.8-.6-.8-1.9 0-1.1.1-1.9.4-2.2.3-.3.5-.5.7-.5h12.1z"/><path class="st6" d="M222.7 46.8c.6 0 .8.7.8 2 0 1-.2 1.7-.5 2.1s-.6.5-.8.5h-15.3c-.5 0-.8-.6-.8-1.9 0-1.1.3-1.9.9-2.5.2-.2.5-.3 1-.3h.4c.5 0 1 0 1.5-.1.6 0 1.1-.1 1.5-.2.6-.2.9-.6.9-1.1V7.6c0-.3-.1-.5-.4-.5h-5.3c-.6 0-1.1-.6-1.3-1.8 0-.3-.1-.6-.1-.9 0-1.3.3-1.9.8-1.9h9.7c.6 0 1.1.3 1.3.9L234.9 41l15.6-37.8c.2-.4.5-.6.8-.6h12.2c.5 0 .8.8.8 2.3 0 1.5-.4 2.3-1.1 2.3h-5.8v39.7h5.5c.6 0 .8.7.8 2 0 1-.2 1.7-.5 2.1s-.6.5-.8.5h-17.2c-.5 0-.8-.6-.8-1.9 0-1.1.3-1.9.9-2.5.2-.2.5-.3 1-.3h.4c.5 0 1 0 1.5-.1.6 0 1.1-.1 1.5-.2.6-.2.9-.6.9-1.1V15.1L236 51.5c-.3.3-.7.4-1.3.4-1.2 0-2-.1-2.4-.4l-14.9-33.2V47h5.3zm57.3 5.3c-2.3 0-4.4-.4-6.1-1.3-1.8-.9-3.2-2.1-4.5-3.6-2.4-3.1-3.6-7.3-3.6-12.3 0-5.3 1.6-9.5 4.9-12.5 3-2.7 6.8-4.1 11.3-4.1h.1c4.2 0 7.7 1.6 10.2 4.8 2.5 3.1 3.7 7.1 3.7 12 0 5.5-1.5 9.7-4.5 12.7-2.8 2.8-6.7 4.3-11.5 4.3zm-4.7-26.6c-.8.9-1.5 2.1-2 3.6s-.8 3.4-.8 5.5c0 2.2.2 4.1.6 5.6.4 1.5 1 2.8 1.8 3.8 1.5 2 3.6 3.1 6.2 3.1 2.7 0 4.8-1.2 6.3-3.6 1.4-2.2 2-5 2-8.5 0-5.9-1.7-9.6-5.2-11-1-.5-2.1-.7-3.2-.7s-2.1.2-3.1.5-1.8.9-2.6 1.7zm46.2 25.9c-.6 0-.8-.7-.8-2 0-1 .2-1.7.5-2.1s.6-.5.8-.5c2.3 0 3.4-.5 3.4-1.4v-9.6c0-4.2-.2-7-.7-8.3-.5-1.3-1.1-2.2-1.8-2.8-.7-.6-1.8-.8-3-.8-2.4 0-5.4 1.4-8.9 4.2v18.7h5.5c.6 0 .8.7.8 2 0 1-.2 1.7-.5 2.1s-.6.5-.8.5h-16.6c-.6 0-.8-.7-.8-2 0-1 .2-1.7.5-2.1s.6-.5.8-.5h.3c2.5 0 3.9-.2 4.3-.7.1-.2.2-.4.2-.6V23.9H299c-.7 0-1.1-.6-1.3-1.6 0-.3-.1-.6-.1-.9 0-1 .3-1.6.9-1.8.6-.2 1.3-.4 2.2-.6s1.8-.3 2.8-.4c1.9-.2 3.4-.3 4.4-.3h.1c1 0 1.5.1 1.7.3.2.2.4.5.5.8.1.4.2 1.1.2 2.3v.6c3.3-1.8 6.2-3.1 8.9-3.7.9-.2 2-.3 3.3-.3 1.3 0 2.7.3 4 .9 1.3.6 2.4 1.4 3.2 2.5 1.4 1.9 2.1 4.9 2.1 9.1v16.1h5c.6 0 .9.7.9 2 0 1-.2 1.7-.5 2.1s-.6.5-.8.5h-15zm17.2-16.7c0-2.7.4-5.1 1.3-7.1s2-3.7 3.5-5.1c3-2.8 6.7-4.2 11.1-4.2h.1c4 0 7.1 1.3 9.3 3.8 2.2 2.5 3.3 6.1 3.3 10.9 0 1-.5 1.9-1.4 2.6-.9.7-2.1 1.1-3.4 1.1h-17.1c.4 5.1 2.2 8.3 5.3 9.7 1 .5 2 .7 3.2.7 1.1 0 2.1-.1 3-.4.9-.2 1.7-.6 2.5-.9.8-.4 1.6-.8 2.3-1.3 1.6-1 2.5-1.5 2.8-1.5.3 0 .5.2.8.4.3.3.5.6.8.9.6.8.9 1.5.9 2.1v.1c0 .5-.1.9-.4 1-4 3.1-8.5 4.6-13.5 4.6-4.5 0-8.1-1.6-10.6-4.7-2.6-3.1-3.8-7.3-3.8-12.7zm21.9-2.9v-.1c0-4.3-1.2-6.9-3.7-7.9-.8-.3-1.6-.5-2.6-.5s-1.9.2-3 .5c-1 .4-2 .9-2.9 1.6-1.9 1.6-3 3.7-3.1 6.4h15.3zm43-12.9c.5 0 .8.6.8 1.9 0 1.1-.3 1.9-.8 2.5-.2.2-.4.3-.8.3s-.7 0-1 .1c-.3 0-.6.1-.8.3-.3.2-.6.6-.8 1.1l-13.7 35c-.7 1.8-1.8 3.2-3.4 4.3-1.6 1-3.5 1.6-5.7 1.6-3 0-5.2-1-6.4-3-.4-.7-.6-1.5-.6-2.4v-.1c0-.8.1-1.5.4-2 .2-.6.5-1 .9-1.4.9-.9 1.8-1.3 2.8-1.3h.1c1 0 1.8.2 2.4.5.5.3 1 .7 1.3 1.2.6.9.9 2.1.9 3.6.7 0 1.3-.4 1.8-1.2.5-.8 1-1.6 1.3-2.5.4-.9.7-1.7 1-2.5.3-.8.5-1.5.7-2.1.2-.6.3-1 .4-1.2l-10.8-27.7H370c-.6 0-.8-.6-.8-1.9 0-1.1.2-1.8.5-2.1s.6-.5.8-.5h14.1c.5 0 .8.6.8 1.9 0 1.1-.2 1.8-.5 2.2-.3.4-.6.5-.8.5-1.9 0-2.9.5-2.9 1.4l6.6 19.3 7.7-20.7h-4.3c-.6 0-.8-.6-.8-1.9 0-1.1.1-1.9.4-2.2.3-.3.5-.5.7-.5h12.1z"/><path class="st7" d="M403.3 47.7c0-2.1.9-3.5 2.7-4.2.6-.2 1.2-.3 1.8-.3s1.2.1 1.8.3c.5.3 1 .6 1.4 1 .8.9 1.3 1.9 1.3 3.2 0 2-.9 3.3-2.7 4.1-.5.2-1.1.3-1.8.3-.6 0-1.3-.1-1.8-.3-.6-.2-1-.5-1.4-.9-.9-.9-1.3-1.9-1.3-3.2zm33.6-24.9h-3c-2.3 0-4.2.9-5.8 2.6-2.1 2.2-3.1 5.3-3.1 9.5 0 6 1.7 9.8 5 11.4 1.1.5 2.1.8 3.2.8s2.1-.1 3-.4c.9-.2 1.8-.6 2.6-.9.9-.4 1.7-.8 2.5-1.3l2.3-1.4c.1-.1.2-.1.5-.1.2 0 .4.1.7.4.3.2.6.5.8.9.6.8.8 1.5.8 2s-.1.9-.4 1.1c-4.1 3.1-8.6 4.6-13.5 4.6-4.5 0-8.1-1.6-10.6-4.7-2.5-3-3.7-7.2-3.7-12.5 0-5.2 1.6-9.3 4.7-12.3 2.9-2.8 6.7-4.2 11.3-4.3 4.9 0 8.3 1.1 10.2 3.2.7.8 1.1 1.7 1.1 2.6 0 .9-.1 1.7-.3 2.2-.3.5-.6 1-1 1.4-.9.8-1.9 1.3-3.2 1.3-1.2 0-2.3-.4-3.2-1.3-.9-.8-1.3-1.6-1.3-2.5s.2-1.5.4-2.3zm26.9 29.3c-2.3 0-4.4-.4-6.1-1.3-1.8-.9-3.2-2.1-4.5-3.6-2.4-3.1-3.6-7.3-3.6-12.3 0-5.3 1.6-9.5 4.9-12.5 3-2.7 6.8-4.1 11.3-4.1h.1c4.2 0 7.7 1.6 10.2 4.8 2.5 3.1 3.7 7.1 3.7 12 0 5.5-1.5 9.7-4.5 12.7-2.8 2.8-6.7 4.3-11.5 4.3zm-4.7-26.6c-.8.9-1.5 2.1-2 3.6s-.8 3.4-.8 5.5c0 2.2.2 4.1.6 5.6.4 1.5 1 2.8 1.8 3.8 1.5 2 3.6 3.1 6.2 3.1 2.7 0 4.8-1.2 6.3-3.6 1.4-2.2 2-5 2-8.5 0-5.9-1.7-9.6-5.2-11-1-.5-2.1-.7-3.2-.7s-2.1.2-3.1.5c-.9.3-1.8.9-2.6 1.7zM48.6 52.1c-2.3 0-4.4-.4-6.1-1.3s-3.2-2.1-4.5-3.6c-2.4-3.1-3.6-7.3-3.6-12.3 0-5.3 1.6-9.5 4.9-12.5 3-2.7 6.8-4.1 11.3-4.1h.1c4.2 0 7.7 1.6 10.2 4.8 2.5 3.1 3.7 7.1 3.7 12 0 5.5-1.5 9.7-4.5 12.7-2.8 2.8-6.7 4.3-11.5 4.3zm-4.7-26.6c-.8.9-1.5 2.1-2 3.6s-.8 3.4-.8 5.5c0 2.2.2 4.1.6 5.6.4 1.5 1 2.8 1.8 3.8 1.5 2 3.6 3.1 6.2 3.1 2.7 0 4.8-1.2 6.3-3.6 1.4-2.2 2-5 2-8.5 0-5.9-1.7-9.6-5.2-11-1-.5-2.1-.7-3.2-.7s-2.1.2-3.1.5c-.9.3-1.8.9-2.6 1.7zm497.5 21.3c.6 0 .9.8.9 2.3 0 1.5-.4 2.3-1.2 2.3h-14.9c-.6 0-.8-.7-.8-2 0-1.1.3-1.9.8-2.4.2-.2.3-.2.5-.2h.1c2.3 0 3.4-.5 3.4-1.4v-9.6c0-4.2-.2-7-.7-8.3s-1.1-2.2-1.8-2.8c-.7-.6-1.8-.8-3-.8-2.4 0-5.4 1.4-8.9 4.2v18.7h5c.6 0 .9.8.9 2.3 0 1.5-.4 2.3-1.3 2.3h-14.8c-.6 0-.8-.6-.8-1.9v-.1c0-1 .3-1.8.8-2.3.2-.2.3-.2.5-.2h.1c2.3 0 3.4-.5 3.4-1.4v-9.6c0-4.2-.2-7-.7-8.3-.5-1.3-1.1-2.2-1.8-2.8-.7-.6-1.8-.8-3-.8-2.4 0-5.4 1.4-8.9 4.2v18.7h5.5c.6 0 .8.6.8 1.9 0 1.1-.2 1.8-.5 2.1-.3.4-.6.5-.8.5h-16.5c-.6 0-.9-.6-.9-1.9 0-1.1.2-1.9.5-2.2s.6-.5.8-.5h.3c2.5 0 3.9-.2 4.3-.7.1-.2.2-.4.2-.6V23.9h-5.7c-.6 0-1-.6-1.3-1.7 0-.3-.1-.6-.1-.8 0-1 .3-1.6.9-1.9.6-.2 1.3-.4 2.2-.6s1.8-.3 2.8-.4c1.9-.2 3.4-.3 4.4-.3h.1c1 0 1.5.1 1.7.3.2.2.4.5.5.8.1.4.2 1.1.2 2.3v.6c3.3-1.8 6.2-3.1 8.9-3.7.9-.2 1.6-.3 2.2-.3 4 0 6.9 1.5 8.6 4.6 3.4-1.9 6.6-3.3 9.8-4.2 1-.3 2.1-.4 3.5-.4s2.7.3 4.1.9c1.3.6 2.4 1.4 3.2 2.5 1.4 1.9 2.1 4.9 2.1 9.1v16.1h4.4z"/><path class="st8" d="M11.5 83.3h4.8c2.2 0 3.9.3 4.9 1 1 .7 1.5 1.7 1.5 3.1 0 1-.2 1.7-.7 2.4s-1.2 1-2.1 1.2v.1c1.1.2 2 .6 2.5 1.3s.8 1.5.8 2.6c0 1.5-.5 2.6-1.5 3.4-1 .8-2.4 1.2-4.3 1.2h-5.9V83.3zm2.6 6.8h2.6c1.1 0 1.9-.2 2.4-.5.5-.4.8-1 .8-1.8s-.3-1.3-.8-1.7c-.6-.3-1.4-.5-2.6-.5h-2.3v4.5zm0 2.1v5.2H17c1.1 0 2-.2 2.5-.6.6-.4.9-1.1.9-2 0-.8-.3-1.5-.9-1.9-.6-.4-1.5-.6-2.6-.6h-2.8zM45 99.6h-9.2V83.3H45v2.3h-6.6V90h6.2v2.2h-6.2v5.1H45v2.3zm18.3 0h-2.7v-14h-4.8v-2.3h12.3v2.3h-4.8v14zm22.1 0h-2.7v-14h-4.8v-2.3h12.3v2.3h-4.8v14zm25.7 0h-9.2V83.3h9.2v2.3h-6.6V90h6.2v2.2h-6.2v5.1h6.6v2.3zm15.3-6.5v6.5h-2.7V83.3h4.6c2.1 0 3.7.4 4.7 1.2 1 .8 1.5 2 1.5 3.6 0 2-1.1 3.5-3.2 4.3l4.6 7.2h-3l-3.9-6.5h-2.6zm0-2.2h1.9c1.2 0 2.1-.2 2.7-.7s.8-1.1.8-2.1c0-.9-.3-1.6-.9-2-.6-.4-1.5-.6-2.7-.6h-1.8v5.4zm43.2-5.5c-1.5 0-2.7.5-3.6 1.6s-1.3 2.6-1.3 4.5c0 2 .4 3.5 1.3 4.5.8 1 2.1 1.5 3.7 1.5.7 0 1.4-.1 2-.2s1.3-.3 2-.5v2.3c-1.3.5-2.7.7-4.4.7-2.4 0-4.2-.7-5.5-2.2-1.3-1.4-1.9-3.5-1.9-6.2 0-1.7.3-3.2.9-4.5s1.5-2.2 2.7-2.9c1.2-.7 2.6-1 4.1-1 1.7 0 3.2.4 4.6 1.1l-1 2.2c-.6-.3-1.1-.5-1.7-.7-.6-.1-1.2-.2-1.9-.2zm19.4 7.7v6.5h-2.7V83.3h4.6c2.1 0 3.7.4 4.7 1.2 1 .8 1.5 2 1.5 3.6 0 2-1.1 3.5-3.2 4.3l4.6 7.2h-3l-3.9-6.5H189zm0-2.2h1.9c1.2 0 2.1-.2 2.7-.7s.8-1.1.8-2.1c0-.9-.3-1.6-.9-2-.6-.4-1.5-.6-2.7-.6H189v5.4zm30.3 8.7h-9.2V83.3h9.2v2.3h-6.6V90h6.2v2.2h-6.2v5.1h6.6v2.3zm26-8.3c0 2.7-.7 4.8-2.2 6.2-1.5 1.4-3.7 2.1-6.5 2.1H232V83.3h5.1c2.6 0 4.6.7 6.1 2.1 1.4 1.4 2.1 3.4 2.1 5.9zm-2.8.1c0-3.9-1.8-5.9-5.5-5.9h-2.3v11.9h1.9c3.9 0 5.9-2 5.9-6zm15.4 8.2V83.3h2.7v16.3h-2.7zm21.8 0H277v-14h-4.8v-2.3h12.3v2.3h-4.8v14zm38.5-14.2c-1.5 0-2.7.5-3.6 1.6s-1.3 2.6-1.3 4.5c0 2 .4 3.5 1.3 4.5s2.1 1.5 3.7 1.5c.7 0 1.4-.1 2-.2.6-.1 1.3-.3 2-.5v2.3c-1.3.5-2.7.7-4.4.7-2.4 0-4.2-.7-5.5-2.2-1.3-1.4-1.9-3.5-1.9-6.2 0-1.7.3-3.2.9-4.5.6-1.3 1.5-2.2 2.7-2.9 1.2-.7 2.6-1 4.1-1 1.7 0 3.2.4 4.6 1.1l-1 2.2c-.6-.3-1.1-.5-1.7-.7s-1.2-.2-1.9-.2zm31.2 6.1c0 2.7-.7 4.7-2 6.2s-3.2 2.2-5.6 2.2c-2.5 0-4.4-.7-5.7-2.2-1.3-1.5-2-3.5-2-6.2s.7-4.8 2-6.2c1.3-1.4 3.2-2.2 5.7-2.2 2.4 0 4.3.7 5.6 2.2 1.4 1.4 2 3.5 2 6.2zm-12.4 0c0 2 .4 3.5 1.2 4.6.8 1 2 1.6 3.6 1.6s2.8-.5 3.6-1.5c.8-1 1.2-2.6 1.2-4.6 0-2-.4-3.5-1.2-4.6s-2-1.6-3.6-1.6-2.8.5-3.6 1.6-1.2 2.5-1.2 4.5zm32.2 8.1L364.4 86h-.1c.1 2 .2 3.9.2 5.7v7.9h-2.4V83.3h3.8l4.5 13h.1l4.7-13h3.8v16.3h-2.6v-8.1c0-.8 0-1.9.1-3.2s.1-2.1.1-2.4h-.1l-4.9 13.6h-2.4zm34-11.4c0 1.7-.6 3-1.7 3.9-1.1.9-2.7 1.4-4.8 1.4H395v6.1h-2.7V83.3h4.7c2 0 3.6.4 4.6 1.3s1.6 2 1.6 3.6zm-8.2 3.1h1.4c1.4 0 2.4-.2 3-.7s1-1.2 1-2.2c0-.9-.3-1.6-.9-2.1-.6-.5-1.5-.7-2.7-.7H395v5.7zm30.7 8.3l-1.6-4.5h-6.2l-1.6 4.5h-2.8l6.1-16.4h2.9l6.1 16.4h-2.9zm-2.3-6.8l-1.5-4.4c-.1-.3-.3-.8-.5-1.4-.2-.6-.3-1.1-.4-1.4-.2.9-.5 1.9-.9 3l-1.5 4.3h4.8zm19.1.3v6.5h-2.7V83.3h4.6c2.1 0 3.7.4 4.7 1.2 1 .8 1.5 2 1.5 3.6 0 2-1.1 3.5-3.2 4.3l4.6 7.2h-3l-3.9-6.5h-2.6zm0-2.2h1.9c1.2 0 2.1-.2 2.7-.7s.8-1.1.8-2.1c0-.9-.3-1.6-.9-2-.6-.4-1.5-.6-2.7-.6h-1.8v5.4zm21.2 8.7V83.3h2.7v16.3h-2.7zm25.5-4.4c0 1.5-.5 2.6-1.6 3.4-1.1.8-2.5 1.2-4.3 1.2s-3.4-.3-4.5-.9v-2.5c.7.4 1.5.6 2.4.8s1.6.3 2.3.3c1.1 0 1.8-.2 2.3-.6s.8-.9.8-1.6c0-.6-.2-1.1-.7-1.6s-1.4-.9-2.9-1.5-2.5-1.3-3.2-2.1c-.6-.8-.9-1.7-.9-2.8 0-1.4.5-2.4 1.5-3.2 1-.8 2.3-1.2 3.9-1.2s3.1.3 4.7 1l-.8 2.2c-1.5-.6-2.7-.9-3.9-.9-.9 0-1.5.2-2 .6-.4.4-.7.9-.7 1.5 0 .4.1.8.3 1.1s.5.6.9.9c.4.3 1.1.6 2.2 1.1 1.2.5 2.1 1 2.6 1.4.6.4 1 .9 1.2 1.5.3.5.4 1.2.4 1.9zm26.8-3.7c0 2.7-.7 4.7-2 6.2s-3.2 2.2-5.6 2.2c-2.5 0-4.4-.7-5.7-2.2-1.3-1.5-2-3.5-2-6.2s.7-4.8 2-6.2c1.3-1.4 3.2-2.2 5.7-2.2 2.4 0 4.3.7 5.6 2.2 1.4 1.4 2 3.5 2 6.2zm-12.4 0c0 2 .4 3.5 1.2 4.6.8 1 2 1.6 3.6 1.6s2.8-.5 3.6-1.5c.8-1 1.2-2.6 1.2-4.6 0-2-.4-3.5-1.2-4.6-.8-1-2-1.6-3.6-1.6s-2.8.5-3.6 1.6-1.2 2.5-1.2 4.5zm38.7 8.1H539l-8-13h-.1l.1.7c.1 1.4.2 2.7.2 3.8v8.5h-2.4V83.3h3.2l8 12.9h.1c0-.2 0-.8-.1-1.9s-.1-1.9-.1-2.5v-8.6h2.4v16.4z"/></svg>